Coordinates
version=1
nRows=29
nColumns=22
inDegrees=yes

Units are S.I. units (second, meters, Newtons, ...)
If the header above contains a line with 'inDegrees', this indicates whether rotational values are in degrees (yes) or radians (no).

endheader
time	pelvis_tilt	pelvis_list	pelvis_rotation	pelvis_tx	pelvis_ty	pelvis_tz	hip_flexion_r	hip_adduction_r	hip_rotation_r	knee_angle_r	ankle_angle_r	subtalar_angle_r	hip_flexion_l	hip_adduction_l	hip_rotation_l	knee_angle_l	ankle_angle_l	subtalar_angle_l	lumbar_extension	lumbar_bending	lumbar_rotation
      3.27000000	     -1.79710134	     -1.21323380	     11.05583342	     -0.25927069	      0.89017458	     -0.62600981	     30.23696767	      6.53183285	    -19.45557359	    -25.72231976	      1.62653102	    -13.15104160	     -8.00837810	     -5.76510118	    -11.23195532	    -38.02255883	      4.50548179	      8.41798071	     -6.91754837	      1.88063146	    -19.59363490
      3.28000000	     -1.78232222	     -1.10391933	     10.28715151	     -0.24868473	      0.89131377	     -0.62559705	     29.86261600	      6.86442618	    -18.68162245	    -26.35914986	      1.99934386	    -13.62585495	     -7.13073014	     -5.83500376	    -10.56479660	    -40.36498019	      1.47164049	      9.02904614	     -6.77130513	      1.78896986	    -19.56765010
      3.29000000	     -1.76908402	     -0.94113264	      9.59372449	     -0.23838275	      0.89247093	     -0.62522180	     29.42782824	      7.09651663	    -18.01601252	    -26.90728200	      2.50001242	    -14.04210341	     -6.08695878	     -5.85281739	     -9.73869321	    -42.80659110	     -1.61032617	      9.51824117	     -6.65055439	      1.64127862	    -19.58822146
      3.30000000	     -1.75935361	     -0.72864287	      8.97006340	     -0.22841910	      0.89362795	     -0.62487102	     28.94311378	      7.23414721	    -17.43831171	    -27.36415258	      3.06227920	    -14.37164389	     -4.87211198	     -5.81797246	     -8.78992318	    -45.33696108	     -4.66297503	      9.80075776	     -6.56111757	      1.43591536	    -19.66032515
      3.31000000	     -1.75586796	     -0.52744787	      8.40564961	     -0.21877905	      0.89473381	     -0.62453365	     28.42685570	      7.34428830	    -16.94929564	    -27.72740706	      3.69917601	    -14.63488488	     -3.48537878	     -5.78334483	     -7.73546848	    -47.94363282	     -7.58191863	      9.91290372	     -6.48879716	      1.24503614	    -19.73807851
      3.32000000	     -1.74808978	     -0.35642606	      7.87680296	     -0.20944590	      0.89578886	     -0.62417548	     27.87404605	      7.45905210	    -16.52681098	    -27.99991802	      4.36386597	    -14.82759892	     -1.95192926	     -5.77042146	     -6.63293551	    -50.60338188	    -10.24524665	      9.82083618	     -6.44313201	      1.08810893	    -19.80840305
      3.33000000	     -1.73819470	     -0.23356818	      7.36161476	     -0.20039541	      0.89677564	     -0.62376287	     27.29211173	      7.61134454	    -16.13781241	    -28.18047245	      5.03125930	    -14.96439977	     -0.28688771	     -5.79959206	     -5.52645664	    -53.29281026	    -12.52159288	      9.52296054	     -6.41866835	      0.98580811	    -19.85699334
      3.34000000	     -1.70989064	     -0.17489465	      6.83846867	     -0.19155621	      0.89774132	     -0.62325032	     26.65329940	      7.83203194	    -15.77893590	    -28.25037888	      5.65707310	    -15.04704064	      1.46000504	     -5.88842777	     -4.43741837	    -55.96036295	    -14.31764457	      9.03926365	     -6.42552715	      0.95134701	    -19.83366271
      3.35000000	     -1.66986209	     -0.17163353	      6.26872029	     -0.18290702	      0.89864809	     -0.62255493	     25.98220157	      8.13651387	    -15.36695926	    -28.24883225	      6.29540957	    -15.10226927	      3.26861275	     -6.04992866	     -3.43953858	    -58.57779853	    -15.51251544	      8.32538285	     -6.45574991	      0.97043003	    -19.75653243
      3.36000000	     -1.59528372	     -0.23774225	      5.65904495	     -0.17438869	      0.89961260	     -0.62165904	     25.22715814	      8.53775924	    -14.94613517	    -28.12395556	      6.78363561	    -15.12364737	      5.08572130	     -6.29142338	     -2.47931287	    -61.08127878	    -16.18429058	      7.62466728	     -6.52863400	      1.05509096	    -19.59713784
      3.37000000	     -1.50184952	     -0.34197608	      4.97127319	     -0.16598559	      0.90058876	     -0.62048431	     24.42073313	      9.02010483	    -14.43835116	    -27.92643060	      7.25023275	    -15.13223938	      6.89476390	     -6.60375069	     -1.62153141	    -63.43657326	    -16.33381500	      6.87718057	     -6.62469275	      1.15994211	    -19.34394173
      3.38000000	     -1.39165260	     -0.46663624	      4.20750926	     -0.15770937	      0.90160647	     -0.61900709	     23.56211576	      9.56405171	    -13.82931513	    -27.65760485	      7.64392842	    -15.13804535	      8.67824092	     -6.96846352	     -0.84110903	    -65.60559028	    -16.09316234	      6.14891917	     -6.74554490	      1.26174824	    -19.03147010
      3.39000000	     -1.27088751	     -0.60983111	      3.36570669	     -0.14955189	      0.90266307	     -0.61721217	     22.65224894	     10.16294357	    -13.12294233	    -27.31737934	      7.97561020	    -15.14499103	     10.42787662	     -7.38631941	     -0.12408086	    -67.56596573	    -15.61158350	      5.49129471	     -6.88322799	      1.35482197	    -18.66144022
      3.40000000	     -1.14914995	     -0.77822306	      2.43659536	     -0.14146730	      0.90375383	     -0.61508695	     21.68323967	     10.81583833	    -12.34430742	    -26.88463191	      8.23152935	    -15.15387921	     12.12820581	     -7.85517306	      0.55625417	    -69.29391804	    -14.96736990	      4.96220653	     -7.01423001	      1.44158351	    -18.17046145
      3.41000000	     -1.02835818	     -0.95185587	      1.43483087	     -0.13348166	      0.90485924	     -0.61266086	     20.66627460	     11.49405376	    -11.47033323	    -26.38930322	      8.47226907	    -15.18218057	     13.77903181	     -8.34738861	      1.21572562	    -70.78652952	    -14.23100217	      4.34371613	     -7.14160673	      1.50614257	    -17.65648395
      3.42000000	     -0.91115741	     -1.14091858	      0.33737272	     -0.12556629	      0.90598380	     -0.60991636	     19.58785340	     12.20513905	    -10.49686672	    -25.81096167	      8.59706807	    -15.20976483	     15.35055039	     -8.85712731	      1.87287300	    -72.02716401	    -13.37310146	      3.84368201	     -7.25859611	      1.56055532	    -17.05539857
      3.43000000	     -0.81128527	     -1.33055113	     -0.83653383	     -0.11775195	      0.90710682	     -0.60693056	     18.46423133	     12.91331697	     -9.44591328	    -25.16060848	      8.65587551	    -15.23773659	     16.85550759	     -9.35937458	      2.53436259	    -73.01360152	    -12.40358528	      3.31622554	     -7.35260613	      1.59789860	    -16.39939175
      3.44000000	     -0.73735910	     -1.50808408	     -2.07551923	     -0.11007458	      0.90820666	     -0.60375256	     17.31396155	     13.59245490	     -8.32602101	    -24.45603620	      8.66057807	    -15.26153139	     18.29751015	     -9.83453551	      3.20136681	    -73.74299838	    -11.29443240	      2.70290540	     -7.41814818	      1.61072486	    -15.69936417
      3.45000000	     -0.69283763	     -1.66869210	     -3.36530712	     -0.10256687	      0.90927262	     -0.60044093	     16.14966365	     14.22656640	     -7.15034212	    -23.70879383	      8.62470242	    -15.27867495	     19.67920044	    -10.27441419	      3.87058090	    -74.21405529	    -10.05719256	      1.97065617	     -7.45580309	      1.60278938	    -14.96822830
      3.46000000	     -0.68394016	     -1.80321459	     -4.70378860	     -0.09525814	      0.91029736	     -0.59702742	     14.98885962	     14.80457910	     -5.90346045	    -22.92964946	      8.51046276	    -15.28729194	     21.00378279	    -10.66805969	      4.53174980	    -74.42246182	     -8.74655313	      1.19462548	     -7.46401975	      1.57083896	    -14.20640412
      3.47000000	     -0.69139530	     -1.90619928	     -6.06361698	     -0.08809364	      0.91127714	     -0.59360243	     13.82864214	     15.30039390	     -4.66148746	    -22.15251246	      8.47905300	    -15.28509053	     22.24494852	    -10.99988084	      5.18513781	    -74.36911267	     -7.30336046	      0.22724341	     -7.45868234	      1.51643795	    -13.42588292
      3.48000000	     -0.72853515	     -1.97408628	     -7.47191366	     -0.08111972	      0.91221379	     -0.59011228	     12.69014402	     15.73306193	     -3.31590810	    -21.37700126	      8.35189491	    -15.27749688	     23.41482138	    -11.28043250	      5.79914733	    -74.05310663	     -5.91679246	     -0.62807858	     -7.43107210	      1.43404696	    -12.60658473
      3.49000000	     -0.77628640	     -1.99874821	     -8.89912894	     -0.07427445	      0.91311158	     -0.58666110	     11.57478797	     16.07459426	     -1.94333977	    -20.63676584	      8.27129526	    -15.26598231	     24.49011568	    -11.48501180	      6.37834237	    -73.47591620	     -4.52689130	     -1.46707422	     -7.39674990	      1.32581893	    -11.77221166
      3.50000000	     -0.83001241	     -1.98522731	    -10.35596237	     -0.06752448	      0.91397166	     -0.58322546	     10.48709987	     16.33617977	     -0.52224462	    -19.94877998	      8.20819993	    -15.25811572	     25.45711658	    -11.62592201	      6.90493469	    -72.64054471	     -3.19365748	     -2.21424979	     -7.35420253	      1.19526826	    -10.91188610
      3.51000000	     -0.88461153	     -1.92918741	    -11.82712429	     -0.06085591	      0.91479158	     -0.57983458	      9.43031891	     16.51400749	      0.94488794	    -19.31518864	      8.17012422	    -15.25885920	     26.31926370	    -11.69080885	      7.38026474	    -71.55972147	     -1.94282313	     -2.82537017	     -7.30783331	      1.03843435	    -10.04771966
      3.52000000	     -0.93803147	     -1.83569772	    -13.31550131	     -0.05425197	      0.91556729	     -0.57647455	      8.40664512	     16.61409288	      2.45964356	    -18.73782173	      8.15354128	    -15.27019100	     27.07486289	    -11.69404863	      7.79117701	    -70.24360706	     -0.80753998	     -3.26844459	     -7.25607580	      0.85936497	     -9.17328587
      3.53000000	     -0.97836119	     -1.71269454	    -14.80669584	     -0.04768233	      0.91630258	     -0.57316502	      7.40573476	     16.64090865	      3.99769539	    -18.21585129	      8.16747980	    -15.29453120	     27.71560925	    -11.62898177	      8.15733082	    -68.70836155	      0.21578684	     -3.56673903	     -7.20848291	      0.66560817	     -8.30628194
      3.54000000	     -1.00342012	     -1.56760287	    -16.29205357	     -0.04114018	      0.91699801	     -0.56990453	      6.42207307	     16.60076628	      5.55263452	    -17.73751931	      8.20841961	    -15.32764337	     28.24744886	    -11.49964954	      8.48752696	    -66.96944531	      1.11232598	     -3.70549278	     -7.16902635	      0.46321480	     -7.44982291
      3.55000000	     -1.02234857	     -1.40800442	    -17.76439765	     -0.03460719	      0.91763191	     -0.56668852	      5.46010206	     16.50147688	      7.09534965	    -17.28729521	      8.27989488	    -15.35716149	     28.68701776	    -11.31773508	      8.78944057	    -65.04263592	      1.87848412	     -3.68853789	     -7.12709108	      0.26352383	     -6.60762075
